<svg xmlns="http://www.w3.org/2000/svg" width="1024" height="1024" viewBox="0 0 1024 1024">
  <rect width="1024" height="1024" fill="#000000"/>
  <path d="M0,0 L7,0 L15,4 L19,10 L19,20 L16,26 L9,35 L0,45 L-4,50 L-12,57 L-26,68 L-41,77 L-60,86 L-79,92 L-99,96 L-122,100 L-149,109 L-170,120 L-182,129 L-192,138 L-201,148 L-183,143 L-174,141 L-142,141 L-108,148 L-91,150 L-65,150 L-40,145 L-20,137 L-8,130 L5,120 L18,107 L30,91 L36,87 L45,87 L51,90 L56,97 L56,105 L51,115 L42,126 L33,136 L17,151 L2,161 L-14,169 L-33,176 L-51,180 L-59,181 L-69,181 L-69,183 L-65,185 L-51,196 L-35,205 L-28,208 L-13,212 L-6,213 L20,213 L44,209 L50,207 L59,208 L65,212 L68,217 L68,228 L64,234 L60,237 L35,243 L19,245 L-7,245 L-23,242 L-37,238 L-49,233 L-64,225 L-78,215 L-92,203 L-103,193 L-116,184 L-128,178 L-147,173 L-173,173 L-185,176 L-201,184 L-214,195 L-223,207 L-229,219 L-234,235 L-235,241 L-235,293 L-232,309 L-228,322 L-221,336 L-211,349 L-204,356 L-193,364 L-178,372 L-163,377 L-153,379 L-136,381 L-113,382 L-89,387 L-74,392 L-58,400 L-47,407 L-36,416 L-27,424 L-20,432 L-16,437 L-15,439 L-15,450 L-18,455 L-23,459 L-25,460 L-35,460 L-41,456 L-53,443 L-65,433 L-79,425 L-91,420 L-104,416 L-114,414 L-127,414 L-119,423 L-109,437 L-100,453 L-93,468 L-87,488 L-84,506 L-84,514 L-87,520 L-92,524 L-94,525 L-105,525 L-112,520 L-115,513 L-117,500 L-122,481 L-130,463 L-142,445 L-154,431 L-165,421 L-184,407 L-204,395 L-218,385 L-230,374 L-233,372 L-230,387 L-227,408 L-226,444 L-218,452 L-208,459 L-191,471 L-178,483 L-170,492 L-160,507 L-154,521 L-149,537 L-148,542 L-148,551 L-152,559 L-160,563 L-168,563 L-173,560 L-178,554 L-182,538 L-187,524 L-193,514 L-202,503 L-211,495 L-230,482 L-237,477 L-238,482 L-250,505 L-260,522 L-267,537 L-270,546 L-273,559 L-274,566 L-275,583 L-279,591 L-286,595 L-295,595 L-302,591 L-306,584 L-306,570 L-303,548 L-297,527 L-290,511 L-277,488 L-269,474 L-263,460 L-259,442 L-259,410 L-261,394 L-264,377 L-267,352 L-267,231 L-263,208 L-259,191 L-253,174 L-243,153 L-231,135 L-220,122 L-214,115 L-206,108 L-192,97 L-174,86 L-157,78 L-146,74 L-132,70 L-112,66 L-90,62 L-71,56 L-52,47 L-40,39 L-29,30 L-18,19 L-7,4 Z " fill="#FFFFFF" transform="translate(833,313)"/>
  <path d="M0,0 L8,0 L16,6 L21,17 L27,36 L30,52 L31,61 L31,84 L27,111 L23,133 L23,164 L28,184 L36,204 L44,218 L55,232 L64,241 L75,250 L86,260 L95,271 L105,284 L114,299 L122,316 L129,337 L132,350 L136,380 L136,491 L132,521 L129,535 L125,548 L119,569 L118,588 L96,603 L92,606 L90,606 L87,592 L87,570 L90,556 L95,539 L101,519 L101,515 L92,523 L79,533 L55,548 L43,556 L32,565 L20,576 L10,588 L1,602 L-8,621 L-13,637 L-17,659 L-22,665 L-26,667 L-37,667 L-43,663 L-47,656 L-47,647 L-44,631 L-40,616 L-33,599 L-24,582 L-14,568 L-5,557 L-4,556 L-14,556 L-32,559 L-48,565 L-63,573 L-77,584 L-86,593 L-92,600 L-97,602 L-106,602 L-112,598 L-116,592 L-116,581 L-110,573 L-99,561 L-88,552 L-73,542 L-57,534 L-36,527 L-19,524 L5,523 L27,520 L38,517 L53,511 L67,503 L80,491 L89,480 L97,464 L102,448 L104,438 L104,384 L100,367 L94,352 L86,341 L78,332 L68,325 L56,319 L47,316 L41,315 L16,315 L0,319 L-11,324 L-24,332 L-38,344 L-49,354 L-64,365 L-82,375 L-98,381 L-108,384 L-127,387 L-152,387 L-173,384 L-191,379 L-197,374 L-199,369 L-199,359 L-195,353 L-190,350 L-179,350 L-165,353 L-152,355 L-125,355 L-104,350 L-90,344 L-76,335 L-65,326 L-62,325 L-62,323 L-73,323 L-92,320 L-113,313 L-129,305 L-144,296 L-158,284 L-172,270 L-185,253 L-187,247 L-187,239 L-183,233 L-177,229 L-168,229 L-162,232 L-156,239 L-146,252 L-135,263 L-120,274 L-103,283 L-88,288 L-73,291 L-63,292 L-39,292 L-13,288 L12,283 L41,283 L56,286 L70,290 L59,278 L49,269 L34,259 L18,251 L-7,243 L-48,235 L-63,231 L-82,223 L-99,214 L-113,204 L-125,193 L-138,180 L-149,165 L-150,162 L-150,152 L-146,146 L-139,142 L-130,142 L-122,148 L-115,158 L-104,170 L-94,179 L-79,189 L-58,199 L-38,205 L-4,211 L6,214 L1,203 L-4,188 L-8,168 L-9,160 L-9,135 L-6,116 L-1,89 L-1,59 L-3,45 L-8,29 L-12,19 L-12,11 L-6,3 Z " fill="#FFFFFF" transform="translate(322,171)"/>
  <path d="M0,0 L9,0 L15,4 L19,10 L19,27 L15,50 L8,69 L-1,85 L-11,98 L-23,111 L-33,121 L-44,130 L-56,141 L-64,148 L-82,166 L-93,182 L-99,195 L-101,203 L-101,224 L-95,240 L-88,250 L-79,260 L-68,269 L-51,286 L-41,299 L-31,316 L-25,329 L-25,331 L-23,331 L-20,322 L-9,299 L-5,289 L-2,273 L-2,254 L-7,232 L-12,218 L-21,201 L-28,191 L-40,177 L-49,167 L-54,161 L-52,157 L-40,146 L-33,140 L-29,142 L-16,157 L-7,167 L5,184 L13,198 L21,216 L27,237 L28,247 L33,242 L50,226 L64,214 L72,205 L78,193 L80,188 L81,182 L81,157 L75,139 L67,121 L60,104 L55,82 L54,74 L54,53 L58,31 L61,21 L69,14 L80,14 L86,18 L90,24 L90,33 L88,40 L86,50 L86,76 L90,93 L96,110 L105,129 L111,148 L113,160 L113,184 L135,174 L173,160 L192,150 L206,140 L218,129 L227,117 L231,114 L234,113 L241,113 L248,116 L253,123 L253,132 L249,140 L237,154 L224,166 L210,176 L192,186 L168,196 L143,205 L123,214 L107,223 L96,230 L81,241 L67,253 L48,272 L37,286 L27,300 L16,319 L6,340 L-3,367 L-7,385 L-10,411 L-11,582 L-14,604 L-20,621 L-26,633 L-35,645 L-44,655 L-54,664 L-72,677 L-94,691 L-110,704 L-120,714 L-129,728 L-134,739 L-139,759 L-144,765 L-149,767 L-159,767 L-166,762 L-169,755 L-168,745 L-163,726 L-155,709 L-145,695 L-136,685 L-129,678 L-116,668 L-89,650 L-75,640 L-65,631 L-58,624 L-50,611 L-46,600 L-43,586 L-42,578 L-42,396 L-44,376 L-48,358 L-55,338 L-64,321 L-74,307 L-80,300 L-88,293 L-103,280 L-114,268 L-124,252 L-131,233 L-133,222 L-133,204 L-129,186 L-123,171 L-113,155 L-105,145 L-91,130 L-77,117 L-66,108 L-54,97 L-46,90 L-38,82 L-28,69 L-20,55 L-16,44 L-12,22 L-11,11 L-6,3 Z " fill="#FFFFFF" transform="translate(538,121)"/>
  <path d="M0,0 L11,0 L16,3 L20,8 L22,18 L26,45 L32,64 L38,79 L37,83 L25,94 L17,101 L14,101 L5,82 L-1,65 L-5,50 L-9,27 L-9,9 L-5,3 Z " fill="#FFFFFF" transform="translate(433,128)"/>
  <path d="M0,0 L5,5 L17,23 L24,38 L29,57 L30,66 L30,81 L26,89 L19,93 L9,93 L2,88 L-1,83 L-2,65 L-5,50 L-13,34 L-24,18 L-19,13 L-8,5 Z " fill="#FFFFFF" transform="translate(467,815)"/>
</svg>
